<mxfile host="app.diagrams.net" modified="2020-09-03T06:58:34.554Z" agent="5.0 (Windows)" etag="SOnLFTvGsKl-9CAKqu2j" version="13.6.6" type="github">
  <diagram id="2tgiY0oYy0XrGvmX7eBh" name="Page-1">
    <mxGraphModel dx="1422" dy="763" grid="1" gridSize="10" guides="1" tooltips="1" connect="1" arrows="1" fold="1" page="1" pageScale="1" pageWidth="827" pageHeight="1169" math="0" shadow="0">
      <root>
        <mxCell id="0" />
        <mxCell id="1" parent="0" />
        <mxCell id="0r8cdEqHE2hhs4LSGh0r-4" value="" style="rounded=0;whiteSpace=wrap;html=1;fillColor=#ffffff;gradientColor=none;" vertex="1" parent="1">
          <mxGeometry x="180" y="190" width="120" height="60" as="geometry" />
        </mxCell>
        <mxCell id="0r8cdEqHE2hhs4LSGh0r-5" value="" style="rounded=0;whiteSpace=wrap;html=1;fillColor=#ffffff;gradientColor=none;" vertex="1" parent="1">
          <mxGeometry x="180" y="190" width="120" height="60" as="geometry" />
        </mxCell>
        <mxCell id="0r8cdEqHE2hhs4LSGh0r-6" value="" style="rounded=0;whiteSpace=wrap;html=1;fillColor=#ffffff;gradientColor=none;" vertex="1" parent="1">
          <mxGeometry x="320" y="190" width="120" height="60" as="geometry" />
        </mxCell>
      </root>
    </mxGraphModel>
  </diagram>
</mxfile>
